<?xml version="1.0" encoding="UTF-8"?>
<svg id="Layer_1" data-name="Layer 1" xmlns="http://www.w3.org/2000/svg" viewBox="0 0 850.71 920.86">
  <defs>
    <style>
      .cls-1 {
        letter-spacing: -.01em;
      }

      .cls-2 {
        font-size: 84.05px;
      }

      .cls-2, .cls-3 {
        font-family: Monda-Regular, Monda;
      }

      .cls-2, .cls-3, .cls-4 {
        fill: #baa360;
      }

      .cls-5 {
        letter-spacing: -.02em;
      }

      .cls-3 {
        font-size: 27px;
      }

      .cls-6 {
        letter-spacing: -.01em;
      }

      .cls-7 {
        letter-spacing: -.07em;
      }

      .cls-8 {
        letter-spacing: 0em;
      }
    </style>
  </defs>
  <g>
    <path class="cls-4" d="M850.71,811.68s-13.03-5.33-35.59-15.3c-11.15-5.49-25.28-9.79-41.03-15.96-15.63-6.43-33.93-11.54-53.63-17.81-4.92-1.54-9.94-3.14-15.07-4.74-5.2-1.27-10.5-2.56-15.88-3.87-10.73-2.73-21.82-5.56-33.22-8.46-11.43-2.72-23.33-4.54-35.38-6.93-12.09-2.19-24.34-5.04-37.01-6.35-12.6-1.73-25.42-3.49-38.39-5.28-12.99-1.45-26.22-2.13-39.5-3.39-6.64-.54-13.31-1.11-19.99-1.68-6.69-.34-13.42-.33-20.16-.59-13.46-.37-26.99-.76-40.51-1.13-13.57.39-27.14.77-40.66,1.16-6.8.25-13.67.26-20.38.62-6.64.57-13.26,1.11-19.85,1.68-13.2,1.26-26.3,1.94-39.26,3.38-12.97,1.8-25.78,3.57-38.39,5.29-12.68,1.29-24.92,4.16-37,6.35-12.05,2.38-23.96,4.21-35.39,6.93-11.4,2.9-22.48,5.72-33.22,8.46-5.38,1.31-10.68,2.61-15.88,3.87-5.12,1.61-10.15,3.19-15.07,4.73-19.7,6.28-37.99,11.39-53.69,17.82-15.79,6.18-29.94,10.51-41.02,15.94-22.46,9.91-35.56,15.26-35.56,15.26,0,0,11.93-8.09,33.27-21.7,10.52-7.21,24.04-13.95,39.44-22.13,3.87-2.04,7.85-4.13,11.95-6.3,2.05-1.07,4.15-2.17,6.25-3.28,2.15-.96,4.34-1.93,6.55-2.92,8.92-3.82,18.26-7.85,28.04-12.05,4.9-2.09,9.89-4.22,14.99-6.4,5.19-1.84,10.46-3.71,15.82-5.62,10.78-3.64,21.94-7.42,33.4-11.29,11.52-3.64,23.53-6.43,35.74-9.79,12.22-3.3,24.72-6.59,37.61-8.7,12.85-2.34,25.93-4.73,39.17-7.12,13.32-2.07,26.95-3.23,40.64-4.75,6.84-.73,13.73-1.45,20.63-2.17,6.84-.57,13.62-.62,20.44-.91,13.77-.49,27.61-.97,41.42-1.45,13.87.49,27.74.97,41.57,1.46,6.9.28,13.81.38,20.67.93,6.85.73,13.69,1.45,20.49,2.18,13.6,1.52,27.12,2.71,40.41,4.73,13.24,2.41,26.32,4.8,39.17,7.15,12.88,2.08,25.38,5.43,37.61,8.72,12.19,3.35,24.2,6.12,35.74,9.77,11.45,3.88,22.61,7.65,33.4,11.32,5.37,1.9,10.64,3.78,15.82,5.61,5.09,2.18,10.1,4.31,14.99,6.39,9.77,4.21,19.12,8.23,28.02,12.06,2.22.98,4.41,1.95,6.57,2.91,2.11,1.12,4.2,2.21,6.27,3.29,4.12,2.17,8.11,4.28,12,6.3,15.44,8.19,29,14.97,39.43,22.13,21.18,13.52,33.18,21.64,33.18,21.64Z"/>
    <g>
      <path class="cls-4" d="M494.25,461.73v248.11c8.46,1.24,16.82,3.18,25.03,5.62v-218.61l9.78,6.7v215.14c2.61.94,5.24,1.81,7.81,2.86,1.56.36,3.07.86,4.63,1.27,1.28-.12,2.6-.31,3.87-.41v-207.72l9.78,6.7v200.47c5.51-.21,10.94-.21,16.31-.03v-189.28l9.78,6.7v183.14c5.48.42,10.92,1,16.31,1.8v-173.78l9.78,6.7v168.7c5.46,1.03,10.88,2.3,16.3,3.7v-161.25l9.78,6.7v157.26c5.43,1.6,10.85,3.35,16.3,5.27v-151.38l9.78,6.69v148.34c5.41,2.09,10.83,4.36,16.31,6.75v-158.39l-181.58-127.79Z"/>
      <polygon class="cls-4" points="285.85 77.12 285.85 260.11 294.02 260.11 294.02 97.3 303.81 92.31 303.81 260.11 320.12 260.11 320.12 83.97 329.9 78.98 329.9 260.11 346.21 260.11 346.21 70.66 356 65.66 356 260.11 372.3 260.11 372.3 57.36 382.08 52.36 382.08 260.11 398.39 260.11 398.39 44.03 408.17 39.04 408.17 260.11 424.48 260.11 424.48 30.72 434.26 25.72 434.26 260.11 442.01 260.11 442.01 0 285.85 77.12"/>
      <path class="cls-4" d="M294.02,719.16v-440.32l9.78-5.51v443.68c5.43-1.18,10.87-2.31,16.31-3.39v-449.48l9.78-5.51v453.07c5.44-1,10.86-1.9,16.31-2.73V249.46l9.78-5.51v463.7c5.43-.71,10.86-1.34,16.3-1.85V234.78l9.78-5.51v475.61c5.44-.39,10.87-.65,16.3-.77V220.08l9.78-5.51v489.52c5.45.02,10.88.2,16.31.51V205.4l9.78-5.52v505.33c5.45.52,10.88,1.22,16.31,2.06V190.7l9.78-5.51v523.05c5.43-.23,10.87-.26,16.3,0V176.02l9.78-5.51v538.49c6.03.62,12.03,1.52,17.95,2.73V120.62l-281.32,171.69v444.59c.8-.22,1.55-.54,2.36-.73,5.45-1.38,10.92-2.77,16.42-4.17v-423.8l9.78-5.51v426.81c5.42-1.38,10.85-2.73,16.3-4.09v-431.92l9.78-5.51v435c5.43-1.29,10.85-2.58,16.3-3.83Z"/>
    </g>
  </g>
  <text class="cls-2" transform="translate(71.56 866.84)"><tspan x="0" y="0">adi anant p</tspan><tspan class="cls-1" x="392.41" y="0">r</tspan><tspan class="cls-8" x="419.64" y="0">operties</tspan></text>
  <text class="cls-3" transform="translate(253.23 913.84)"><tspan class="cls-7" x="0" y="0">f</tspan><tspan class="cls-6" x="7.21" y="0">r</tspan><tspan x="15.96" y="0">om duty </tspan><tspan class="cls-5" x="113.31" y="0">t</tspan><tspan x="119.71" y="0">o deals – with honor</tspan></text>
</svg>